
        <svg xmlns="http://www.w3.org/2000/svg" xmlns:xlink="http://www.w3.org/1999/xlink" version="1.1" width="3198.049183289035" 
        height="2647.5458245841537" viewBox="0 0 3198.049183289035 2647.5458245841537">
			
			<g transform="scale(9.902459164451782) translate(10, 10)">
				<defs id="SvgjsDefs1766"></defs><g id="SvgjsG1767" featureKey="7KWit6-0" transform="matrix(3.65,0,0,3.65,60,4)" fill="#ffffff"><defs xmlns="http://www.w3.org/2000/svg"></defs><g xmlns="http://www.w3.org/2000/svg"><path class="fil0" d="M13.0424 15.2804l23.9152 0c0.213024,0 0.385728,0.172705 0.385728,0.385728l0 15.4745c0,0.213024 -0.172705,0.385732 -0.385728,0.385732l-23.9152 0c-0.213024,0 -0.385728,-0.172709 -0.385728,-0.385732l0 -15.4745c0,-0.213024 0.172705,-0.385728 0.385728,-0.385728zm1.22146 1.60719l0 13.0316 21.4723 0 0 -13.0316 -21.4723 0z" style="fill: #ffffff; fill-rule: nonzero;"></path><polygon class="fil0" points="30.5708,34.7908 19.4292,34.7908 19.4292,33.6759 30.5708,33.6759 " style="fill: #ffffff; fill-rule: nonzero;"></polygon><polygon class="fil0" points="17.3954,23.9155 17.3954,22.9824 22.7914,20.7045 22.7914,21.6983 18.5126,23.4546 22.7914,25.2261 22.7914,26.2218 " style="fill: #ffffff; fill-rule: nonzero;"></polygon><polygon class="fil0" points="23.4192,27.6158 25.7805,19.1929 26.5809,19.1929 24.2252,27.6158 " style="fill: #ffffff; fill-rule: nonzero;"></polygon><polygon class="fil0" points="32.5989,23.9155 27.203,26.2218 27.203,25.2261 31.4761,23.4546 27.203,21.6983 27.203,20.7045 32.5989,22.9824 " style="fill: #ffffff; fill-rule: nonzero;"></polygon><polygon class="fil1" points="22.9616,31.1407 27.0384,31.1407 28.1635,33.801 21.8365,33.801 " style="fill: #ffffff;"></polygon></g><path xmlns="http://www.w3.org/2000/svg" class="fil0" d="M25.3857 0.226008l10.4391 6.027 -0.000759843 0.00131102 10.4369 6.02567 0.388744 0.224449 0 0.441539 0 12.054 0 12.054 0 0.441539 -0.388744 0.224449 -10.4369 6.02567 0.000759843 0.00131102 -10.4391 6.027 -0.385728 0.222685 -0.385728 -0.222685 -10.4391 -6.027 0.000759843 -0.00131102 -10.4369 -6.02567 -0.388744 -0.224449 0 -0.441539 0 -12.054 0 -12.054 0 -0.441539 0.388744 -0.224449 10.4369 -6.02567 -0.000759843 -0.00131102 10.4391 -6.027 0.385728 -0.222685 0.385728 0.222685zm-0.385748 2.4497l-7.65976 4.42235 0.000755906 0.00133071 -11.6762 6.74124 0 22.3187 11.6762 6.74124 -0.000755906 0.00131102 7.6598 4.42237 7.65976 -4.42235 -0.000755906 -0.00133071 11.6762 -6.74124 0 -22.3187 -11.6762 -6.74124 0.000755906 -0.00131102 -7.6598 -4.42237z" style="fill: #ffffff; fill-rule: nonzero;"></path><rect xmlns="http://www.w3.org/2000/svg" class="fil2" width="50" height="50" style="fill: none;"></rect></g><g id="SvgjsG1768" featureKey="ewgXDI-0" transform="matrix(0.9877894907139149,0,0,0.9877894907139149,-1.1853474359581713,227.3103327784155)" fill="#ffffff"><path d="M4.42 17.04 l5.74 0 l0 2.96 l-6.14 0 l-2.82 0 l0 -14 l3.22 0 l5.56 0 l0 2.96 l-5.56 0 l0 2.54 l4.16 0 l0 2.9 l-4.16 0 l0 2.64 z M27.36 6 l0 14 l-3.32 0 l0 -6.76 l-2.86 6.76 l-2.78 0 l-2.82 -6.72 l0 6.72 l-3.32 0 l0 -14 l3.18 0 l4.38 9.72 l4.36 -9.72 l3.18 0 z M32.980000000000004 17.04 l5.74 0 l0 2.96 l-6.14 0 l-2.82 0 l0 -14 l3.22 0 l5.56 0 l0 2.96 l-5.56 0 l0 2.54 l4.16 0 l0 2.9 l-4.16 0 l0 2.64 z M48.620000000000005 20 l-2.86 -4.58 l-1.72 0 l0 4.58 l-3.22 0 l0 -14 l4.98 0 c3.14 0 5.22 1.9 5.22 4.82 c0 1.86 -0.88 3.26 -2.36 3.98 l3.36 5.2 l-3.4 0 z M44.040000000000006 8.96 l0 3.72 l1.56 0 c1.3 0 2.2 -0.46 2.2 -1.86 c0 -1.38 -0.9 -1.86 -2.2 -1.86 l-1.56 0 z M64.98 20 l-0.98 -2.32 l-6.58 0 l-0.98 2.32 l-3.42 0 l6.22 -14 l2.94 0 l6.22 14 l-3.42 0 z M58.540000000000006 15.059999999999999 l4.36 0 l-2.18 -5.16 z M73.22000000000001 17.04 l5.32 0 l0 2.96 l-8.54 0 l0 -14 l3.22 0 l0 11.04 z M85.74000000000002 6 c3.96 0 7.1 3.12 7.1 6.9 c0 3.98 -3.14 7.1 -7.1 7.1 l-5.2 0 l0 -14 l5.2 0 z M85.72000000000001 16.96 c2.54 0 3.82 -1.84 3.82 -4.06 c0 -2.02 -1.28 -3.86 -3.82 -3.86 l-1.96 0 l0 7.92 l1.96 0 z M112.66000000000001 18.5 c-1.26 1.12 -2.9 1.7 -4.8 1.7 c-3.96 0 -7.32 -2.94 -7.32 -7.2 s3.36 -7.2 7.32 -7.2 c1.88 0 3.5 0.6 4.72 1.66 l-1.94 2.18 c-0.7 -0.48 -1.64 -0.82 -2.58 -0.82 c-2.46 0 -4.16 1.76 -4.16 4.18 s1.7 4.18 4.16 4.18 c0.98 0 1.98 -0.38 2.68 -0.94 z M121.54000000000002 5.800000000000001 c3.96 0 7.28 2.94 7.28 7.2 s-3.32 7.2 -7.28 7.2 s-7.28 -2.94 -7.28 -7.2 s3.32 -7.2 7.28 -7.2 z M121.54000000000002 17.18 c2.26 0 3.94 -1.76 3.94 -4.18 s-1.68 -4.18 -3.94 -4.18 s-3.92 1.76 -3.92 4.18 s1.66 4.18 3.92 4.18 z M146.04000000000002 6 l0 14 l-3.32 0 l0 -6.76 l-2.86 6.76 l-2.78 0 l-2.82 -6.72 l0 6.72 l-3.32 0 l0 -14 l3.18 0 l4.38 9.72 l4.36 -9.72 l3.18 0 z M153.42000000000002 6 c3.14 0 5.22 1.9 5.22 4.82 c0 2.88 -2.08 4.6 -5.22 4.6 l-1.76 0 l0 4.58 l-3.22 0 l0 -14 l4.98 0 z M153.22 12.68 c1.3 0 2.2 -0.46 2.2 -1.86 c0 -1.38 -0.9 -1.86 -2.2 -1.86 l-1.56 0 l0 3.72 l1.56 0 z M168.3 6 l3.22 0 l0 8.92 c0 3.38 -2.52 5.38 -5.48 5.38 c-2.98 0 -5.5 -2 -5.5 -5.38 l0 -8.92 l3.22 0 l0 8.94 c0 1.92 1.3 2.34 2.28 2.34 s2.26 -0.42 2.26 -2.34 l0 -8.94 z M183.54 6 l0 2.96 l-3.4 0 l0 11.04 l-3.22 0 l0 -11.04 l-3.4 0 l0 -2.96 l10.02 0 z M188.76 17.04 l5.74 0 l0 2.96 l-6.14 0 l-2.82 0 l0 -14 l3.22 0 l5.56 0 l0 2.96 l-5.56 0 l0 2.54 l4.16 0 l0 2.9 l-4.16 0 l0 2.64 z M204.4 20 l-2.86 -4.58 l-1.72 0 l0 4.58 l-3.22 0 l0 -14 l4.98 0 c3.14 0 5.22 1.9 5.22 4.82 c0 1.86 -0.88 3.26 -2.36 3.98 l3.36 5.2 l-3.4 0 z M199.82 8.96 l0 3.72 l1.56 0 c1.3 0 2.2 -0.46 2.2 -1.86 c0 -1.38 -0.9 -1.86 -2.2 -1.86 l-1.56 0 z M220.26000000000002 5.76 c2.52 0 4.06 1.56 4.82 2.88 l-2.36 1.42 c-0.78 -1 -1.46 -1.46 -2.46 -1.46 c-0.86 0 -1.5 0.5 -1.5 1.2 c0 0.72 0.4 1.08 1.4 1.42 l0.94 0.34 c3.26 1.14 4.38 2.58 4.38 4.44 c0 2.92 -2.76 4.3 -5.16 4.3 c-2.56 0 -4.52 -1.52 -5.22 -3.46 l2.46 -1.32 c0.5 0.9 1.24 1.88 2.76 1.88 c1.04 0 1.82 -0.42 1.82 -1.36 c0 -0.86 -0.48 -1.26 -1.98 -1.82 l-0.8 -0.28 c-2.06 -0.74 -3.8 -1.72 -3.8 -4.28 c0 -2.28 2.16 -3.9 4.7 -3.9 z M230.6 17.04 l5.74 0 l0 2.96 l-6.14 0 l-2.82 0 l0 -14 l3.22 0 l5.56 0 l0 2.96 l-5.56 0 l0 2.54 l4.16 0 l0 2.9 l-4.16 0 l0 2.64 z M246.24 20 l-2.86 -4.58 l-1.72 0 l0 4.58 l-3.22 0 l0 -14 l4.98 0 c3.14 0 5.22 1.9 5.22 4.82 c0 1.86 -0.88 3.26 -2.36 3.98 l3.36 5.2 l-3.4 0 z M241.66 8.96 l0 3.72 l1.56 0 c1.3 0 2.2 -0.46 2.2 -1.86 c0 -1.38 -0.9 -1.86 -2.2 -1.86 l-1.56 0 z M262.6 6 l3.42 0 l-6.22 14 l-2.94 0 l-6.22 -14 l3.42 0 l4.28 10.1 z M270.84000000000003 6 l0 14 l-3.22 0 l0 -14 l3.22 0 z M285.06 18.5 c-1.26 1.12 -2.9 1.7 -4.8 1.7 c-3.96 0 -7.32 -2.94 -7.32 -7.2 s3.36 -7.2 7.32 -7.2 c1.88 0 3.5 0.6 4.72 1.66 l-1.94 2.18 c-0.7 -0.48 -1.64 -0.82 -2.58 -0.82 c-2.46 0 -4.16 1.76 -4.16 4.18 s1.7 4.18 4.16 4.18 c0.98 0 1.98 -0.38 2.68 -0.94 z M290.18000000000006 17.04 l5.74 0 l0 2.96 l-6.14 0 l-2.82 0 l0 -14 l3.22 0 l5.56 0 l0 2.96 l-5.56 0 l0 2.54 l4.16 0 l0 2.9 l-4.16 0 l0 2.64 z M302.68000000000006 5.76 c2.52 0 4.06 1.56 4.82 2.88 l-2.36 1.42 c-0.78 -1 -1.46 -1.46 -2.46 -1.46 c-0.86 0 -1.5 0.5 -1.5 1.2 c0 0.72 0.4 1.08 1.4 1.42 l0.94 0.34 c3.26 1.14 4.38 2.58 4.38 4.44 c0 2.92 -2.76 4.3 -5.16 4.3 c-2.56 0 -4.52 -1.52 -5.22 -3.46 l2.46 -1.32 c0.5 0.9 1.24 1.88 2.76 1.88 c1.04 0 1.82 -0.42 1.82 -1.36 c0 -0.86 -0.48 -1.26 -1.98 -1.82 l-0.8 -0.28 c-2.06 -0.74 -3.8 -1.72 -3.8 -4.28 c0 -2.28 2.16 -3.9 4.7 -3.9 z"></path></g>
			</g>
		</svg>
	